<svg width="28" height="24" viewBox="0 0 28 24" fill="none" xmlns="http://www.w3.org/2000/svg">
<path fill-rule="evenodd" clip-rule="evenodd" d="M25.4668 6.67208C25.3935 6.66675 25.3121 6.66675 25.2268 6.66675H21.8601C19.1028 6.66675 16.7441 8.83741 16.7441 11.6667C16.7441 14.4961 19.1041 16.6667 21.8601 16.6667H25.2268C25.3121 16.6667 25.3935 16.6667 25.4695 16.6614C26.0362 16.6272 26.5711 16.3882 26.9747 15.9889C27.3782 15.5895 27.6228 15.0571 27.6628 14.4907C27.6681 14.4107 27.6681 14.3241 27.6681 14.2441V9.08942C27.6681 9.00942 27.6681 8.92275 27.6628 8.84275C27.6228 8.27643 27.3782 7.74399 26.9747 7.34464C26.5711 6.94528 26.0362 6.70625 25.4695 6.67208M21.5655 13.0001C22.2748 13.0001 22.8495 12.4027 22.8495 11.6667C22.8495 10.9307 22.2748 10.3334 21.5655 10.3334C20.8548 10.3334 20.2801 10.9307 20.2801 11.6667C20.2801 12.4027 20.8548 13.0001 21.5655 13.0001Z" fill="white"/>
<path fill-rule="evenodd" clip-rule="evenodd" d="M25.224 18.6667C25.2701 18.6648 25.316 18.6739 25.3579 18.6931C25.3999 18.7123 25.4367 18.7411 25.4654 18.7772C25.4941 18.8133 25.5139 18.8557 25.5231 18.9009C25.5324 18.9461 25.5309 18.9928 25.5187 19.0373C25.252 19.9867 24.8267 20.7973 24.1453 21.4773C23.1467 22.4773 21.8813 22.9187 20.3187 23.1293C18.7987 23.3333 16.8587 23.3333 14.408 23.3333H11.592C9.14133 23.3333 7.2 23.3333 5.68133 23.1293C4.11867 22.9187 2.85333 22.476 1.85467 21.4787C0.857333 20.48 0.414667 19.2147 0.204 17.652C1.58946e-07 16.132 0 14.192 0 11.7413V11.592C0 9.14133 1.58946e-07 7.2 0.204 5.68C0.414667 4.11733 0.857333 2.852 1.85467 1.85333C2.85333 0.856 4.11867 0.413333 5.68133 0.202667C7.20133 -5.96047e-08 9.14133 0 11.592 0H14.408C16.8587 0 18.8 1.58946e-07 20.3187 0.204C21.8813 0.414667 23.1467 0.857333 24.1453 1.85467C24.8267 2.53733 25.252 3.34667 25.5187 4.296C25.5309 4.34049 25.5324 4.38723 25.5231 4.43243C25.5139 4.47762 25.4941 4.52 25.4654 4.55611C25.4367 4.59222 25.3999 4.62105 25.3579 4.64026C25.316 4.65947 25.2701 4.66852 25.224 4.66667H21.8587C18.076 4.66667 14.7427 7.65333 14.7427 11.6667C14.7427 15.68 18.076 18.6667 21.8587 18.6667H25.224ZM5 5.33333C4.73478 5.33333 4.48043 5.43869 4.29289 5.62623C4.10536 5.81376 4 6.06812 4 6.33333C4 6.59855 4.10536 6.8529 4.29289 7.04044C4.48043 7.22798 4.73478 7.33333 5 7.33333H10.3333C10.5985 7.33333 10.8529 7.22798 11.0404 7.04044C11.228 6.8529 11.3333 6.59855 11.3333 6.33333C11.3333 6.06812 11.228 5.81376 11.0404 5.62623C10.8529 5.43869 10.5985 5.33333 10.3333 5.33333H5Z" fill="white"/>
</svg>
