<svg width="22" height="28" viewBox="0 0 22 28" fill="none" xmlns="http://www.w3.org/2000/svg">
<path fill-rule="evenodd" clip-rule="evenodd" d="M10.6667 7.85081C7.95333 7.85081 5.43333 8.32014 3.54133 9.13081C2.59867 9.53481 1.74933 10.0508 1.11733 10.6908C0.48 11.3361 0 12.1815 0 13.1841C0 14.1868 0.48 15.0321 1.11733 15.6775C1.74933 16.3175 2.59733 16.8335 3.54133 17.2375C5.43333 18.0481 7.95333 18.5175 10.6667 18.5175C13.38 18.5175 15.9 18.0481 17.792 17.2375C18.7347 16.8335 19.584 16.3175 20.216 15.6775C20.8533 15.0321 21.3333 14.1868 21.3333 13.1841C21.3333 12.1815 20.8533 11.3361 20.216 10.6908C19.584 10.0508 18.736 9.53481 17.792 9.13081C15.9 8.32014 13.38 7.85081 10.6667 7.85081ZM10.6667 11.8508C12.876 11.8508 14.6667 12.4481 14.6667 13.1841C14.6667 13.9201 12.876 14.5175 10.6667 14.5175C8.45733 14.5175 6.66667 13.9201 6.66667 13.1841C6.66667 12.4481 8.45733 11.8508 10.6667 11.8508ZM3.928 18.8148C3.83733 19.8735 3.67467 20.8935 3.49467 21.7828L3.33867 22.5121L3.184 23.1655L3.03733 23.7295C2.71467 24.9295 3.23733 26.3921 4.64 26.8735C4.78667 26.9228 4.944 26.9748 5.11333 27.0281L5.656 27.1855C6.90667 27.5281 8.62667 27.8508 10.6667 27.8508C12.7067 27.8508 14.4267 27.5281 15.6773 27.1855L16.22 27.0281C16.3893 26.9748 16.548 26.9228 16.6933 26.8735C18.0947 26.3921 18.6187 24.9281 18.296 23.7295L18.1493 23.1655L17.9947 22.5121L17.8387 21.7828C17.6387 20.8024 17.494 19.8115 17.4053 18.8148C15.4667 19.4881 13.12 19.8508 10.6667 19.8508C8.21333 19.8508 5.868 19.4881 3.928 18.8148ZM8.01067 0.748144L7.736 0.209478C7.58933 -0.0571889 7.516 -0.0598556 7.396 0.148144L7.30667 0.318811L7.25333 0.425478C6.68138 1.61777 5.80529 2.63827 4.71333 3.38414L4.41067 3.57881C4.068 3.78948 4.02933 3.86148 4.23733 4.00948L4.41067 4.12281C5.53735 4.81431 6.46177 5.79069 7.09067 6.95348L7.36533 7.49214C7.512 7.75881 7.58533 7.76148 7.70667 7.55348L7.79467 7.38281L7.848 7.27614C8.41958 6.08401 9.2952 5.06353 10.3867 4.31748L10.6893 4.12281C11.1093 3.86548 11.0733 3.81614 10.6893 3.57881C9.56269 2.88727 8.63828 1.9109 8.00933 0.748144H8.01067ZM13.548 5.05481L13.6413 5.00281C14.4416 4.57436 15.1195 3.94887 15.6107 3.18548L15.8787 2.72681C15.9813 2.57348 16.036 2.58548 16.1293 2.73748L16.2227 2.90148C16.6413 3.67481 17.2733 4.33614 18.0573 4.82681L18.3587 5.00281C18.6147 5.14281 18.6667 5.18414 18.452 5.31214L18.3587 5.36548C17.4587 5.84496 16.7168 6.5748 16.2227 7.46681L16.1293 7.63081C16.036 7.78281 15.9827 7.79481 15.8787 7.64148L15.7787 7.46814C15.3432 6.67822 14.7107 6.01447 13.9427 5.54148L13.6413 5.36548C13.3853 5.22548 13.3347 5.18281 13.548 5.05481Z" fill="white"/>
</svg>
