<svg width="32" height="32" viewBox="0 0 32 32" fill="none" xmlns="http://www.w3.org/2000/svg">
<path d="M17.0723 30.8347V18.8347C17.0723 18.0769 17.3733 17.3502 17.9091 16.8144C18.4449 16.2786 19.1716 15.9775 19.9294 15.9775C20.6872 15.9775 21.4139 16.2786 21.9497 16.8144C22.4855 17.3502 22.7866 18.0769 22.7866 18.8347V25.1204H27.358C28.5704 25.1204 29.7332 25.602 30.5905 26.4593C31.4478 27.3166 31.9294 28.4794 31.9294 29.6918V30.8347" fill="white"/>
<path fill-rule="evenodd" clip-rule="evenodd" d="M1.09251e-06 10.0918C0.00257633 8.63612 0.319493 7.19814 0.929081 5.87621C1.53867 4.55428 2.42655 3.37959 3.53201 2.43246C4.63746 1.48533 5.93443 0.7881 7.3342 0.388453C8.73398 -0.0111947 10.2036 -0.103835 11.6424 0.116866C13.0813 0.337566 14.4556 0.866403 15.6712 1.66721C16.8869 2.46802 17.9152 3.52192 18.686 4.75683C19.4568 5.99174 19.9518 7.37854 20.1371 8.8224C20.3225 10.2663 20.1938 11.7331 19.76 13.1227C18.2744 13.1667 16.8644 13.7878 15.8291 14.8542C14.7938 15.9206 14.2148 17.3484 14.2149 18.8347V19.3353C12.6753 20.0194 10.9892 20.3079 9.30974 20.1745C7.63031 20.0412 6.01082 19.4903 4.59846 18.5719C3.18609 17.6535 2.02563 16.3967 1.22255 14.9157C0.419465 13.4347 -0.000782035 11.7765 1.09251e-06 10.0918ZM10.1097 2.69069C10.9006 2.69069 11.5383 3.33069 11.5383 4.11926V4.76612C12.1002 4.89487 12.6206 5.16352 13.0509 5.54713C13.4813 5.93075 13.8078 6.41688 14 6.9604C14.0626 7.13735 14.0897 7.32489 14.0798 7.51232C14.0699 7.69974 14.0232 7.88339 13.9423 8.05276C13.8615 8.22214 13.748 8.37392 13.6085 8.49946C13.469 8.62499 13.3061 8.72182 13.1291 8.7844C12.9522 8.84699 12.7647 8.8741 12.5772 8.86421C12.3898 8.85432 12.2062 8.8076 12.0368 8.72674C11.8674 8.64587 11.7156 8.53243 11.5901 8.39291C11.4646 8.25338 11.3677 8.09049 11.3051 7.91354C11.2664 7.80389 11.1946 7.70896 11.0996 7.64182C11.0046 7.57469 10.8912 7.53865 10.7749 7.53869H9.232C9.14669 7.54017 9.06486 7.57279 9.00193 7.6304C8.939 7.68802 8.8993 7.76665 8.89031 7.8515C8.88132 7.93635 8.90366 8.02155 8.95312 8.09108C9.00258 8.1606 9.07575 8.20965 9.15886 8.22897L11.5063 8.74097C12.2652 8.90784 12.9447 9.32803 13.433 9.93243C13.9214 10.5368 14.1894 11.2894 14.1932 12.0665C14.1969 12.8435 13.936 13.5986 13.4535 14.2077C12.971 14.8167 12.2955 15.2434 11.5383 15.4175V16.0667C11.5383 16.4456 11.3878 16.8089 11.1199 17.0768C10.852 17.3447 10.4886 17.4953 10.1097 17.4953C9.73083 17.4953 9.36747 17.3447 9.09956 17.0768C8.83165 16.8089 8.68114 16.4456 8.68114 16.0667V15.4198C8.11986 15.2901 7.60031 15.0211 7.17045 14.6376C6.7406 14.2541 6.41431 13.7685 6.22172 13.2255C6.09532 12.8682 6.11606 12.4752 6.27938 12.1332C6.4427 11.7911 6.73521 11.5279 7.09257 11.4015C7.44993 11.2751 7.84287 11.2959 8.18493 11.4592C8.527 11.6225 8.79018 11.915 8.91657 12.2724C8.95563 12.3819 9.02752 12.4766 9.12242 12.5437C9.21733 12.6108 9.33063 12.647 9.44686 12.6473H10.7749C10.9118 12.6439 11.0428 12.5909 11.1435 12.4981C11.2443 12.4052 11.3078 12.279 11.3223 12.1428C11.3369 12.0066 11.3014 11.8698 11.2226 11.7578C11.1437 11.6458 11.0268 11.5663 10.8937 11.5341L8.54857 11.0198C7.82216 10.8615 7.17332 10.4557 6.71306 9.87182C6.2528 9.28795 6.0097 8.56229 6.02536 7.81899C6.04102 7.07568 6.31446 6.36091 6.79891 5.79694C7.28335 5.23298 7.9487 4.85485 8.68114 4.72726V4.11926C8.68114 3.3284 9.32114 2.69069 10.1097 2.69069ZM17.072 18.8347V31.9775H31.9291V29.6918C31.9291 28.4794 31.4475 27.3166 30.5902 26.4593C29.7329 25.602 28.5701 25.1204 27.3577 25.1204H22.7863V18.8347C22.7863 18.0769 22.4853 17.3502 21.9494 16.8144C21.4136 16.2786 20.6869 15.9775 19.9291 15.9775C19.1714 15.9775 18.4447 16.2786 17.9088 16.8144C17.373 17.3502 17.072 18.0769 17.072 18.8347Z" fill="white"/>
</svg>
