<svg width="26" height="20" viewBox="0 0 26 20" fill="none" xmlns="http://www.w3.org/2000/svg">
<path d="M2.4 0C1.76348 0 1.15303 0.252856 0.702944 0.702943C0.252856 1.15303 0 1.76348 0 2.4V13.6C0 14.2365 0.252856 14.847 0.702944 15.2971C1.15303 15.7471 1.76348 16 2.4 16H20C20.6365 16 21.247 15.7471 21.6971 15.2971C22.1471 14.847 22.4 14.2365 22.4 13.6V2.4C22.4 1.76348 22.1471 1.15303 21.6971 0.702943C21.247 0.252856 20.6365 0 20 0H2.4ZM6.4 1.6V3.2C6.4 4.04869 6.06286 4.86263 5.46274 5.46274C4.86263 6.06286 4.04869 6.4 3.2 6.4H1.6V4.8H3.2C3.62435 4.8 4.03131 4.63143 4.33137 4.33137C4.63143 4.03131 4.8 3.62435 4.8 3.2V1.6H6.4ZM11.2 10.8C10.4574 10.8 9.7452 10.505 9.2201 9.9799C8.695 9.4548 8.4 8.74261 8.4 8C8.4 7.25739 8.695 6.5452 9.2201 6.0201C9.7452 5.495 10.4574 5.2 11.2 5.2C11.9426 5.2 12.6548 5.495 13.1799 6.0201C13.705 6.5452 14 7.25739 14 8C14 8.74261 13.705 9.4548 13.1799 9.9799C12.6548 10.505 11.9426 10.8 11.2 10.8ZM1.6 11.2V9.6H3.2C4.04869 9.6 4.86263 9.93714 5.46274 10.5373C6.06286 11.1374 6.4 11.9513 6.4 12.8V14.4H4.8V12.8C4.8 12.3757 4.63143 11.9687 4.33137 11.6686C4.03131 11.3686 3.62435 11.2 3.2 11.2H1.6ZM19.2 11.2C18.7757 11.2 18.3687 11.3686 18.0686 11.6686C17.7686 11.9687 17.6 12.3757 17.6 12.8V14.4H16V12.8C16 11.9513 16.3371 11.1374 16.9373 10.5373C17.5374 9.93714 18.3513 9.6 19.2 9.6H20.8V11.2H19.2ZM19.2 4.8H20.8V6.4H19.2C18.3513 6.4 17.5374 6.06286 16.9373 5.46274C16.3371 4.86263 16 4.04869 16 3.2V1.6H17.6V3.2C17.6 3.62435 17.7686 4.03131 18.0686 4.33137C18.3687 4.63143 18.7757 4.8 19.2 4.8ZM24 13.6C24 14.6609 23.5786 15.6783 22.8284 16.4284C22.0783 17.1786 21.0609 17.6 20 17.6H3.336C3.50151 18.0681 3.80813 18.4734 4.21361 18.76C4.6191 19.0465 5.10348 19.2003 5.6 19.2H20C21.4852 19.2 22.9096 18.61 23.9598 17.5598C25.01 16.5096 25.6 15.0852 25.6 13.6V5.6C25.6003 5.10348 25.4465 4.6191 25.16 4.21361C24.8734 3.80813 24.4681 3.50151 24 3.336V13.6Z" fill="white"/>
</svg>
