<svg width="27" height="26" viewBox="0 0 27 26" fill="none" xmlns="http://www.w3.org/2000/svg">
<path d="M12.4599 2.69967L12.7598 2.73227C11.7394 4.26392 11.331 6.12283 11.6157 7.94115C11.8699 9.55304 13.107 10.5489 14.2152 11.0052L19.1748 13.0588C20.283 13.5184 21.8607 13.6895 23.1792 12.7312C24.2437 11.9565 25.0798 10.9093 25.5995 9.69972C25.9124 10.645 26.077 11.7044 26.077 12.8876C26.077 15.7447 25.2051 17.7477 24.3005 19.0467C23.8823 19.6518 23.3833 20.1968 22.8174 20.6667V22.9811C22.8174 23.6295 22.5598 24.2513 22.1014 24.7098C21.6429 25.1682 21.0211 25.4258 20.3727 25.4258H18.117C17.6343 25.4249 17.1717 25.2326 16.8307 24.891C16.4897 24.5493 16.2981 24.0864 16.2981 23.6037C16.2984 23.5787 16.2936 23.5539 16.2842 23.5308C16.2748 23.5077 16.2609 23.4867 16.2433 23.4689C16.2258 23.4512 16.2049 23.4371 16.1818 23.4275C16.1588 23.4179 16.134 23.413 16.1091 23.413H13.2276C13.2026 23.413 13.1779 23.4179 13.1548 23.4275C13.1318 23.4371 13.1109 23.4512 13.0933 23.4689C13.0757 23.4867 13.0618 23.5077 13.0524 23.5308C13.043 23.5539 13.0383 23.5787 13.0385 23.6037C13.0385 24.6093 12.2236 25.4242 11.2196 25.4242H8.96398C8.3156 25.4242 7.69377 25.1666 7.2353 24.7081C6.77682 24.2496 6.51926 23.6278 6.51926 22.9794V22.1026C6.43272 22.0519 6.3474 21.9992 6.26337 21.9445C5.79399 21.6397 5.1388 21.1329 4.30923 20.2919C3.48499 19.446 2.82121 18.4575 2.35019 17.3745C2.30526 17.2566 2.23217 17.1514 2.13729 17.0682C2.04241 16.9849 1.92862 16.9262 1.80583 16.897C1.30067 16.8115 0.84213 16.5498 0.511556 16.1583C0.180982 15.7669 -0.000253472 15.271 2.66072e-07 14.7587V12.3042C2.66072e-07 11.2774 0.741565 10.4005 1.75368 10.231C1.946 10.1984 2.1595 10.0273 2.25403 9.7372C2.50339 8.97771 2.98419 7.85477 3.86755 6.95837C4.64704 6.17827 5.54128 5.52201 6.51926 5.01237V1.24099C6.51926 0.665661 6.89411 0.258208 7.30157 0.0935966C7.70902 -0.0693847 8.24849 -0.0400481 8.64942 0.346218C9.11881 0.799306 9.76584 1.36811 10.4667 1.83913C11.1854 2.31992 11.8813 2.641 12.4599 2.69967ZM7.74162 11.5707C8.06581 11.5707 8.37672 11.442 8.60595 11.2127C8.83519 10.9835 8.96398 10.6726 8.96398 10.3484C8.96398 10.0242 8.83519 9.71328 8.60595 9.48405C8.37672 9.25481 8.06581 9.12602 7.74162 9.12602C7.41743 9.12602 7.10651 9.25481 6.87728 9.48405C6.64804 9.71328 6.51926 10.0242 6.51926 10.3484C6.51926 10.6726 6.64804 10.9835 6.87728 11.2127C7.10651 11.442 7.41743 11.5707 7.74162 11.5707ZM24.5091 7.55325L24.5157 7.56303C24.4123 8.32623 24.1558 9.06067 23.7614 9.72221C23.3671 10.3838 22.8431 10.9587 22.2209 11.4127C21.5217 11.9212 20.596 11.8853 19.7973 11.5544L14.8395 9.50088C14.0734 9.18307 13.415 8.59145 13.2439 7.78958C13.0977 6.97792 13.1292 6.14422 13.3363 5.34593C13.5434 4.54765 13.9212 3.80376 14.4435 3.16555C14.9659 2.52733 15.6204 2.00997 16.3619 1.64911C17.1035 1.28826 17.9145 1.0925 18.7391 1.07532C19.5636 1.05814 20.3821 1.21996 21.138 1.54961C21.894 1.87927 22.5695 2.36892 23.118 2.98483C23.6664 3.60073 24.0748 4.32824 24.315 5.11721C24.5552 5.90618 24.6214 6.73621 24.5091 7.55325Z" fill="white"/>
</svg>
