<svg width="27" height="27" viewBox="0 0 27 27" fill="none" xmlns="http://www.w3.org/2000/svg">
<path d="M6.66667 8C5.93333 8 5.30578 7.73911 4.784 7.21733C4.26222 6.69556 4.00089 6.06756 4 5.33333V2.66667C4 1.93333 4.26133 1.30578 4.784 0.784C5.30667 0.262222 5.93422 0.000888889 6.66667 0H20C20.7333 0 21.3613 0.261333 21.884 0.784C22.4067 1.30667 22.6676 1.93422 22.6667 2.66667V5.33333C22.6667 6.06667 22.4058 6.69467 21.884 7.21733C21.3622 7.74 20.7342 8.00089 20 8H6.66667ZM8 5.33333H18.6667C19.0222 5.33333 19.2724 5.172 19.4173 4.84933C19.5622 4.52667 19.7564 4.24356 20 4C20 3.62222 19.872 3.30578 19.616 3.05067C19.36 2.79556 19.0436 2.66756 18.6667 2.66667H8C7.62222 2.66667 7.30578 2.79467 7.05067 3.05067C6.79556 3.30667 6.66756 3.62311 6.66667 4C6.91111 4.24444 7.10578 4.528 7.25067 4.85067C7.39556 5.17333 7.64533 5.33422 8 5.33333ZM2.66667 26.6667C1.93333 26.6667 1.30578 26.4058 0.784 25.884C0.262222 25.3622 0.000888889 24.7342 0 24V22.6667H26.6667V24C26.6667 24.7333 26.4058 25.3613 25.884 25.884C25.3622 26.4067 24.7342 26.6676 24 26.6667H2.66667ZM0 21.3333L4.63333 10.9C4.85556 10.4111 5.18889 10.028 5.63333 9.75067C6.07778 9.47333 6.55556 9.33422 7.06667 9.33333H19.6C20.1111 9.33333 20.5889 9.47244 21.0333 9.75067C21.4778 10.0289 21.8111 10.412 22.0333 10.9L26.6667 21.3333H0ZM8.66667 18.6667H10C10.1778 18.6667 10.3333 18.6 10.4667 18.4667C10.6 18.3333 10.6667 18.1778 10.6667 18C10.6667 17.8222 10.6 17.6667 10.4667 17.5333C10.3333 17.4 10.1778 17.3333 10 17.3333H8.66667C8.48889 17.3333 8.33333 17.4 8.2 17.5333C8.06667 17.6667 8 17.8222 8 18C8 18.1778 8.06667 18.3333 8.2 18.4667C8.33333 18.6 8.48889 18.6667 8.66667 18.6667ZM8.66667 16H10C10.1778 16 10.3333 15.9333 10.4667 15.8C10.6 15.6667 10.6667 15.5111 10.6667 15.3333C10.6667 15.1556 10.6 15 10.4667 14.8667C10.3333 14.7333 10.1778 14.6667 10 14.6667H8.66667C8.48889 14.6667 8.33333 14.7333 8.2 14.8667C8.06667 15 8 15.1556 8 15.3333C8 15.5111 8.06667 15.6667 8.2 15.8C8.33333 15.9333 8.48889 16 8.66667 16ZM8.66667 13.3333H10C10.1778 13.3333 10.3333 13.2667 10.4667 13.1333C10.6 13 10.6667 12.8444 10.6667 12.6667C10.6667 12.4889 10.6 12.3333 10.4667 12.2C10.3333 12.0667 10.1778 12 10 12H8.66667C8.48889 12 8.33333 12.0667 8.2 12.2C8.06667 12.3333 8 12.4889 8 12.6667C8 12.8444 8.06667 13 8.2 13.1333C8.33333 13.2667 8.48889 13.3333 8.66667 13.3333ZM12.6667 18.6667H14C14.1778 18.6667 14.3333 18.6 14.4667 18.4667C14.6 18.3333 14.6667 18.1778 14.6667 18C14.6667 17.8222 14.6 17.6667 14.4667 17.5333C14.3333 17.4 14.1778 17.3333 14 17.3333H12.6667C12.4889 17.3333 12.3333 17.4 12.2 17.5333C12.0667 17.6667 12 17.8222 12 18C12 18.1778 12.0667 18.3333 12.2 18.4667C12.3333 18.6 12.4889 18.6667 12.6667 18.6667ZM12.6667 16H14C14.1778 16 14.3333 15.9333 14.4667 15.8C14.6 15.6667 14.6667 15.5111 14.6667 15.3333C14.6667 15.1556 14.6 15 14.4667 14.8667C14.3333 14.7333 14.1778 14.6667 14 14.6667H12.6667C12.4889 14.6667 12.3333 14.7333 12.2 14.8667C12.0667 15 12 15.1556 12 15.3333C12 15.5111 12.0667 15.6667 12.2 15.8C12.3333 15.9333 12.4889 16 12.6667 16ZM12.6667 13.3333H14C14.1778 13.3333 14.3333 13.2667 14.4667 13.1333C14.6 13 14.6667 12.8444 14.6667 12.6667C14.6667 12.4889 14.6 12.3333 14.4667 12.2C14.3333 12.0667 14.1778 12 14 12H12.6667C12.4889 12 12.3333 12.0667 12.2 12.2C12.0667 12.3333 12 12.4889 12 12.6667C12 12.8444 12.0667 13 12.2 13.1333C12.3333 13.2667 12.4889 13.3333 12.6667 13.3333ZM16.6667 18.6667H18C18.1778 18.6667 18.3333 18.6 18.4667 18.4667C18.6 18.3333 18.6667 18.1778 18.6667 18C18.6667 17.8222 18.6 17.6667 18.4667 17.5333C18.3333 17.4 18.1778 17.3333 18 17.3333H16.6667C16.4889 17.3333 16.3333 17.4 16.2 17.5333C16.0667 17.6667 16 17.8222 16 18C16 18.1778 16.0667 18.3333 16.2 18.4667C16.3333 18.6 16.4889 18.6667 16.6667 18.6667ZM16.6667 16H18C18.1778 16 18.3333 15.9333 18.4667 15.8C18.6 15.6667 18.6667 15.5111 18.6667 15.3333C18.6667 15.1556 18.6 15 18.4667 14.8667C18.3333 14.7333 18.1778 14.6667 18 14.6667H16.6667C16.4889 14.6667 16.3333 14.7333 16.2 14.8667C16.0667 15 16 15.1556 16 15.3333C16 15.5111 16.0667 15.6667 16.2 15.8C16.3333 15.9333 16.4889 16 16.6667 16ZM16.6667 13.3333H18C18.1778 13.3333 18.3333 13.2667 18.4667 13.1333C18.6 13 18.6667 12.8444 18.6667 12.6667C18.6667 12.4889 18.6 12.3333 18.4667 12.2C18.3333 12.0667 18.1778 12 18 12H16.6667C16.4889 12 16.3333 12.0667 16.2 12.2C16.0667 12.3333 16 12.4889 16 12.6667C16 12.8444 16.0667 13 16.2 13.1333C16.3333 13.2667 16.4889 13.3333 16.6667 13.3333Z" fill="white"/>
</svg>
