<svg width="32" height="29" viewBox="0 0 32 29" fill="none" xmlns="http://www.w3.org/2000/svg">
<path fill-rule="evenodd" clip-rule="evenodd" d="M18.2955 0.00268276H13.5413C12.7984 -0.00968312 12.0747 0.238089 11.4953 0.7031C10.9159 1.16811 10.5174 1.82109 10.3687 2.54897V2.55811L8.69326 11.1295C8.66086 11.2951 8.66554 11.4659 8.70695 11.6294C8.74836 11.793 8.82549 11.9454 8.93278 12.0756C9.04007 12.2059 9.17487 12.3107 9.3275 12.3827C9.48013 12.4547 9.64681 12.4919 9.81555 12.4918H22.0601C22.2291 12.4917 22.396 12.4541 22.5488 12.3818C22.7015 12.3094 22.8363 12.204 22.9434 12.0733C23.0505 11.9426 23.1273 11.7897 23.1683 11.6257C23.2092 11.4617 23.2132 11.2907 23.1801 11.125L21.4658 2.55354V2.54897C21.3177 1.82106 20.9197 1.16785 20.3407 0.702434C19.7618 0.237014 19.0383 -0.0113278 18.2955 0.000396936V0.00268276ZM9.62126 15.6598H4.86698C4.12391 15.6482 3.40019 15.8969 2.82118 16.3627C2.24218 16.8286 1.84438 17.4823 1.69669 18.2107L1.69441 18.2198L0.0212632 26.7913C-0.0110984 26.9567 -0.00647192 27.1272 0.0348112 27.2906C0.0760944 27.454 0.153012 27.6063 0.260053 27.7365C0.367094 27.8667 0.501607 27.9716 0.653955 28.0437C0.806303 28.1158 0.972714 28.1533 1.14126 28.1535H13.3881C13.5571 28.1534 13.724 28.1158 13.8768 28.0435C14.0295 27.9711 14.1643 27.8658 14.2714 27.735C14.3785 27.6043 14.4553 27.4514 14.4963 27.2874C14.5372 27.1234 14.5412 26.9524 14.5081 26.7867L12.7938 18.2153V18.2107C12.6451 17.4828 12.2466 16.8298 11.6672 16.3648C11.0878 15.8998 10.3641 15.652 9.62126 15.6644V15.6598ZM22.2155 15.6598H26.9698C27.7126 15.6481 28.436 15.8964 29.015 16.3619C29.594 16.8273 29.992 17.4805 30.1401 18.2084V18.213L31.8544 26.7844C31.8875 26.9501 31.8835 27.1212 31.8426 27.2851C31.8016 27.4491 31.7248 27.602 31.6177 27.7327C31.5106 27.8635 31.3758 27.9688 31.2231 28.0412C31.0703 28.1136 30.9034 28.1512 30.7344 28.1513H18.4898C18.3213 28.151 18.1549 28.1135 18.0025 28.0414C17.8502 27.9693 17.7157 27.8644 17.6086 27.7342C17.5016 27.604 17.4247 27.4517 17.3834 27.2883C17.3421 27.1249 17.3375 26.9544 17.3698 26.789L19.0407 18.2175L19.043 18.2084C19.1916 17.4809 19.5898 16.8282 20.1687 16.3633C20.7476 15.8983 21.4708 15.6503 22.2133 15.6621L22.2155 15.6598Z" fill="white"/>
</svg>
