<svg width="32" height="32" viewBox="0 0 32 32" fill="none" xmlns="http://www.w3.org/2000/svg">
<path d="M12.9746 25.0551L10.4921 20.1601C10.4921 20.1601 10.0721 17.4076 10.3521 13.7626C10.5971 10.5826 11.2146 8.3451 12.8671 6.3526C14.1496 4.8076 16.1896 3.2401 18.2171 2.5051C20.2446 1.7701 20.4546 1.7351 20.4546 1.9801C20.4546 2.2251 17.2746 3.6626 15.0721 6.7376C12.8696 9.8126 12.9746 12.7501 12.8346 14.6726C12.6946 16.5951 12.9746 25.0551 12.9746 25.0551Z" fill="white"/>
<path d="M4.86491 12.0526C6.19991 14.4451 7.46741 18.9126 8.92991 22.2826C10.2924 25.4276 11.7174 27.8526 12.9749 29.0401C14.2324 30.2276 15.3799 30.1226 15.8774 29.7051C16.6249 29.0751 16.2324 27.3276 16.2274 26.3151C16.2174 24.5051 16.5624 23.2551 17.1024 22.3301C17.5774 21.5176 18.4674 20.6926 19.4099 20.9751C20.5424 21.3151 21.2974 22.4351 21.6474 22.9601C21.9974 23.4851 22.5224 24.5326 22.7649 24.5326C23.0074 24.5326 22.6099 21.8301 21.4574 20.2451C20.3174 18.6776 18.6799 18.3701 17.2099 19.0101C13.9274 20.4401 13.8349 24.7801 13.8349 24.7801C13.8349 24.7801 11.7549 23.0276 10.3224 18.4501C9.97241 17.3326 8.87241 13.3626 7.77991 11.7426C6.09991 9.25006 4.30491 8.73006 3.29241 8.38006C2.27991 8.03006 1.05491 7.68006 1.01991 7.89006C0.984913 8.10256 3.36241 9.36006 4.86491 12.0526Z" fill="white"/>
<path d="M14.8604 26.3976C14.7604 25.7026 14.4454 23.8851 14.5704 21.6026C14.6554 20.0151 15.0929 17.3776 17.4979 16.5126C19.4329 15.8176 20.9429 15.8101 23.0029 16.8001C24.9129 17.7176 23.9929 16.4926 23.0954 16.0276C22.4729 15.7051 19.8204 14.3651 17.1929 15.2576C14.1379 16.2951 13.3229 19.9451 13.3229 19.9451C13.3229 19.9451 13.1004 15.9751 13.9179 14.0176C14.7354 12.0576 16.2054 10.4551 15.8029 10.3226C15.6529 10.2726 13.7979 11.0301 12.7529 13.4226C11.6379 15.9776 11.5879 18.2851 11.6604 19.6001C11.7329 20.9151 11.9204 22.2076 11.9204 22.2076C11.9204 22.2076 12.4404 23.4151 13.0529 24.1976C13.6204 24.9251 14.8904 26.6101 14.8604 26.3976Z" fill="white"/>
<path d="M16.8074 6.71256C16.6849 6.68756 15.3849 7.18756 14.7299 8.75756C14.0749 10.3276 14.6324 11.6226 14.6324 11.6226C14.6324 11.6226 16.3824 10.1001 16.7099 9.15256C17.0374 8.20256 16.9724 6.74506 16.8074 6.71256Z" fill="white"/>
<path d="M20.0821 11.1624C20.0996 11.0824 18.7571 9.95241 17.7246 9.93491C16.6946 9.91741 15.4346 10.8024 15.4346 10.8024C15.4346 10.8024 15.8646 11.8324 17.4971 12.0124C18.6746 12.1449 20.0496 11.3099 20.0821 11.1624ZM17.2996 9.26491C17.4146 9.36241 18.7396 9.21491 19.5071 8.30741C20.3146 7.35241 20.3271 5.18991 20.0821 5.18991C19.7896 5.18991 19.5921 5.49991 19.0846 5.81241C18.5771 6.12241 17.6446 7.03991 17.3996 7.74241C17.1521 8.44741 17.1846 9.16741 17.2996 9.26491ZM18.6021 9.41991C18.6296 9.70991 19.6546 10.6674 20.7921 10.7174C21.9296 10.7674 22.9346 10.3374 22.9346 10.1674C22.9346 9.99741 22.2096 8.72491 20.9521 8.59991C19.5921 8.46741 18.5896 9.28741 18.6021 9.41991ZM20.2771 8.18491C20.4121 8.41741 21.9771 8.12491 22.7121 7.11991C23.3896 6.19491 23.2621 5.14991 23.1896 5.01491C23.1171 4.87991 22.0271 4.98991 21.1571 5.99491C20.4371 6.82741 20.1546 7.96991 20.2771 8.18491ZM21.9046 8.18491C21.8971 8.40491 22.5521 9.29991 23.2996 9.64241C24.4246 10.1574 25.8571 9.84991 25.9196 9.65491C25.9796 9.45991 25.3071 8.13991 24.4021 7.74491C23.3371 7.27991 21.9171 7.82991 21.9046 8.18491ZM23.5096 7.17991C23.5096 7.47491 25.2721 7.42491 25.8971 6.99741C26.5221 6.56991 27.1696 5.41741 27.3171 5.25991C27.4646 5.10241 27.4896 4.94241 27.1696 4.84491C26.8521 4.74741 25.2846 4.69741 24.3796 5.37241C23.4746 6.04741 23.5096 7.11991 23.5096 7.17991ZM25.4921 7.57241C25.3296 7.66491 25.5771 7.97741 25.6996 8.23241C25.8221 8.48991 26.2371 9.52991 27.1446 9.98241C28.0121 10.4149 29.1896 10.3874 29.2371 10.3249C29.2871 10.2649 29.0321 8.80991 28.1471 8.14741C27.0696 7.33991 25.7971 7.40241 25.4921 7.57241ZM26.8246 7.00991C26.8546 7.15241 28.0496 7.77991 29.0646 7.86741C30.0796 7.95491 31.0846 6.93741 31.0971 6.82741C31.1096 6.71741 30.1796 5.72491 29.1271 5.76241C27.7446 5.80991 26.7896 6.83741 26.8246 7.00991ZM22.3471 12.4199C22.3271 12.1874 20.4246 12.1499 19.4596 13.1549C18.4921 14.1574 18.4671 15.1124 18.4671 15.1124L19.1646 15.5649C19.1646 15.5649 20.4996 14.9774 21.2196 14.2799C22.0596 13.4674 22.3696 12.6999 22.3471 12.4199Z" fill="white"/>
<path d="M20.6154 18.8799C20.9229 18.8924 20.8604 17.5949 20.5654 16.7874C20.2529 15.9299 19.4279 15.3199 19.4279 15.3199L18.4004 15.5399C18.4004 15.5399 18.4229 16.5574 18.9179 17.4399C19.5754 18.6049 20.3329 18.8674 20.6154 18.8799ZM20.9029 15.7474C20.9029 15.7474 20.8004 16.7949 21.2829 17.7674C21.7854 18.7824 22.8854 19.3699 23.1304 19.2724C23.3754 19.1749 23.2529 17.9374 23.0929 17.3499C22.9329 16.7624 22.2004 15.8449 22.2004 15.8449L20.9029 15.7474ZM20.7679 15.2349C20.7679 15.2349 21.5504 13.9624 22.5054 13.5699C23.8679 13.0099 25.6029 13.7049 25.6129 13.9624C25.6254 14.2199 24.4379 15.0874 23.8504 15.3099C23.2629 15.5299 22.0629 15.7374 22.0629 15.7374L20.7679 15.2349ZM25.6629 15.2699C24.6229 15.3149 23.5954 15.9074 23.5704 16.2374C23.5454 16.5674 24.4629 17.3024 25.7479 17.3024C27.0329 17.3024 27.8279 16.4449 27.8279 16.3224C27.8304 16.1999 27.0954 15.2099 25.6629 15.2699Z" fill="white"/>
<path d="M23.8771 16.6949C23.6046 16.6449 23.3146 18.0299 23.7796 19.1299C24.2446 20.2324 25.4921 20.7824 25.5921 20.8199C25.9121 20.9399 25.8246 18.9849 25.4446 18.1874C25.0971 17.4624 24.2671 16.7699 23.8771 16.6949ZM25.6621 17.6674C25.5546 17.8549 25.7971 19.1124 26.3596 19.8449C27.2396 20.9949 28.5746 21.0799 28.7096 21.0199C28.8446 20.9599 28.6846 19.2074 27.8296 18.3774C27.0071 17.5799 25.7596 17.4949 25.6621 17.6674Z" fill="white"/>
</svg>
